<svg data-v-d3f97b9e="" xmlns="http://www.w3.org/2000/svg" viewBox="0 0 59.949977890657465 60">
  <!---->
  <!---->
  <!---->
  <!---->
  <g data-v-d3f97b9e="" id="19b35512-f04a-4db5-a1fb-9fc9001d32de" transform="matrix(0.9999996821086623,0,0,0.9999996821086623,-0.02499999478811077,0)" stroke="none" fill="#ffffff">
    <g fill-rule="evenodd">
      <path d="M5 6a1 1 0 1 0 0-2 1 1 0 0 0 0 2M8 55a1 1 0 1 0 0 2 1 1 0 0 0 0-2M3 48a1 1 0 1 0 0 2 1 1 0 0 0 0-2M14 3a1 1 0 1 0 0-2 1 1 0 0 0 0 2M54 6a1 1 0 1 0 0-2 1 1 0 0 0 0 2M42.618 30a1 1 0 0 1 1-1h16.357a29.828 29.828 0 0 0-1.695-9H32.263a1 1 0 1 1 0-2h25.224a29.825 29.825 0 0 0-2.129-4H43a1 1 0 0 1 0-2h10.984C48.505 4.718 39.794 0 30 0 17.723 0 7.151 7.416 2.513 18h23.148a1 1 0 0 1 0 2H1.72a29.828 29.828 0 0 0-1.695 9h9.712a1 1 0 1 1 0 2H.025a29.8 29.8 0 0 0 2.073 10h21.845a1 1 0 0 1 0 2H2.966a30.162 30.162 0 0 0 6.666 9h24.174a1 1 0 0 1 0 2H12.021A29.84 29.84 0 0 0 30 60a29.84 29.84 0 0 0 17.979-6h-7.776a1 1 0 0 1 0-2h10.165a30.162 30.162 0 0 0 6.666-9h-26.86a1 1 0 0 1 0-2h27.728a29.8 29.8 0 0 0 2.073-10H43.618a1 1 0 0 1-1-1zM34.567 6H42.9a1 1 0 1 1 0 2h-8.333a1 1 0 0 1 0-2zM16.206 7a1 1 0 0 1 1-1h10.417a1 1 0 0 1 0 2H17.206a1 1 0 0 1-1-1zM24 14a1 1 0 0 1 0-2h10a1 1 0 0 1 0 2H24zm1 9h10a1 1 0 0 1 0 2H25a1 1 0 0 1 0-2zM6 25a1 1 0 0 1 0-2h10a1 1 0 0 1 0 2H6zm9.349 5a1 1 0 0 1 1-1h20.277a1 1 0 0 1 0 2H16.349a1 1 0 0 1-1-1zm21.928 16a1 1 0 0 1 0 2H17a1 1 0 0 1 0-2h20.277zM44 36a1 1 0 0 1-1 1H22.723a1 1 0 0 1 0-2H43a1 1 0 0 1 1 1z"></path>
    </g>
  </g> <!---->
</svg>